<svg width="121" height="21" viewBox="0 0 121 21" fill="none" xmlns="http://www.w3.org/2000/svg">
<path d="M11.34 0.96V3.7H7.62V15H4.2V3.7H0.48V0.96H11.34ZM16.4764 5.7C16.8764 5.08667 17.3764 4.60667 17.9764 4.26C18.5764 3.9 19.2431 3.72 19.9764 3.72V7.34H19.0364C18.1831 7.34 17.5431 7.52667 17.1164 7.9C16.6897 8.26 16.4764 8.9 16.4764 9.82V15H13.0564V3.84H16.4764V5.7ZM20.9311 9.4C20.9311 8.25333 21.1444 7.24667 21.5711 6.38C22.0111 5.51333 22.6044 4.84667 23.3511 4.38C24.0978 3.91333 24.9311 3.68 25.8511 3.68C26.6378 3.68 27.3244 3.84 27.9111 4.16C28.5111 4.48 28.9711 4.9 29.2911 5.42V3.84H32.7111V15H29.2911V13.42C28.9578 13.94 28.4911 14.36 27.8911 14.68C27.3044 15 26.6178 15.16 25.8311 15.16C24.9244 15.16 24.0978 14.9267 23.3511 14.46C22.6044 13.98 22.0111 13.3067 21.5711 12.44C21.1444 11.56 20.9311 10.5467 20.9311 9.4ZM29.2911 9.42C29.2911 8.56667 29.0511 7.89333 28.5711 7.4C28.1044 6.90667 27.5311 6.66 26.8511 6.66C26.1711 6.66 25.5911 6.90667 25.1111 7.4C24.6444 7.88 24.4111 8.54667 24.4111 9.4C24.4111 10.2533 24.6444 10.9333 25.1111 11.44C25.5911 11.9333 26.1711 12.18 26.8511 12.18C27.5311 12.18 28.1044 11.9333 28.5711 11.44C29.0511 10.9467 29.2911 10.2733 29.2911 9.42ZM40.2053 11.8L42.6253 3.84H46.2653L42.3053 15H38.0853L34.1253 3.84H37.7853L40.2053 11.8ZM58.2248 9.24C58.2248 9.56 58.2048 9.89333 58.1648 10.24H50.4248C50.4782 10.9333 50.6982 11.4667 51.0848 11.84C51.4848 12.2 51.9715 12.38 52.5448 12.38C53.3982 12.38 53.9915 12.02 54.3248 11.3H57.9648C57.7782 12.0333 57.4382 12.6933 56.9448 13.28C56.4648 13.8667 55.8582 14.3267 55.1248 14.66C54.3915 14.9933 53.5715 15.16 52.6648 15.16C51.5715 15.16 50.5982 14.9267 49.7448 14.46C48.8915 13.9933 48.2248 13.3267 47.7448 12.46C47.2648 11.5933 47.0248 10.58 47.0248 9.42C47.0248 8.26 47.2582 7.24667 47.7248 6.38C48.2048 5.51333 48.8715 4.84667 49.7248 4.38C50.5782 3.91333 51.5582 3.68 52.6648 3.68C53.7448 3.68 54.7048 3.90667 55.5448 4.36C56.3848 4.81333 57.0382 5.46 57.5048 6.3C57.9848 7.14 58.2248 8.12 58.2248 9.24ZM54.7248 8.34C54.7248 7.75333 54.5248 7.28667 54.1248 6.94C53.7248 6.59333 53.2248 6.42 52.6248 6.42C52.0515 6.42 51.5648 6.58667 51.1648 6.92C50.7782 7.25333 50.5382 7.72667 50.4448 8.34H54.7248ZM63.4491 0.2V15H60.0291V0.2H63.4491ZM70.1675 3.68C70.9542 3.68 71.6408 3.84 72.2275 4.16C72.8275 4.48 73.2875 4.9 73.6075 5.42V3.84H77.0275V14.98C77.0275 16.0067 76.8208 16.9333 76.4075 17.76C76.0075 18.6 75.3875 19.2667 74.5475 19.76C73.7208 20.2533 72.6875 20.5 71.4475 20.5C69.7942 20.5 68.4542 20.1067 67.4275 19.32C66.4008 18.5467 65.8142 17.4933 65.6675 16.16H69.0475C69.1542 16.5867 69.4075 16.92 69.8075 17.16C70.2075 17.4133 70.7008 17.54 71.2875 17.54C71.9942 17.54 72.5542 17.3333 72.9675 16.92C73.3942 16.52 73.6075 15.8733 73.6075 14.98V13.4C73.2742 13.92 72.8142 14.3467 72.2275 14.68C71.6408 15 70.9542 15.16 70.1675 15.16C69.2475 15.16 68.4142 14.9267 67.6675 14.46C66.9208 13.98 66.3275 13.3067 65.8875 12.44C65.4608 11.56 65.2475 10.5467 65.2475 9.4C65.2475 8.25333 65.4608 7.24667 65.8875 6.38C66.3275 5.51333 66.9208 4.84667 67.6675 4.38C68.4142 3.91333 69.2475 3.68 70.1675 3.68ZM73.6075 9.42C73.6075 8.56667 73.3675 7.89333 72.8875 7.4C72.4208 6.90667 71.8475 6.66 71.1675 6.66C70.4875 6.66 69.9075 6.90667 69.4275 7.4C68.9608 7.88 68.7275 8.54667 68.7275 9.4C68.7275 10.2533 68.9608 10.9333 69.4275 11.44C69.9075 11.9333 70.4875 12.18 71.1675 12.18C71.8475 12.18 72.4208 11.9333 72.8875 11.44C73.3675 10.9467 73.6075 10.2733 73.6075 9.42ZM82.9217 5.7C83.3217 5.08667 83.8217 4.60667 84.4217 4.26C85.0217 3.9 85.6884 3.72 86.4217 3.72V7.34H85.4817C84.6284 7.34 83.9884 7.52667 83.5617 7.9C83.1351 8.26 82.9217 8.9 82.9217 9.82V15H79.5017V3.84H82.9217V5.7ZM87.3764 9.4C87.3764 8.25333 87.5897 7.24667 88.0164 6.38C88.4564 5.51333 89.0497 4.84667 89.7964 4.38C90.5431 3.91333 91.3764 3.68 92.2964 3.68C93.0831 3.68 93.7697 3.84 94.3564 4.16C94.9564 4.48 95.4164 4.9 95.7364 5.42V3.84H99.1564V15H95.7364V13.42C95.4031 13.94 94.9364 14.36 94.3364 14.68C93.7497 15 93.0631 15.16 92.2764 15.16C91.3697 15.16 90.5431 14.9267 89.7964 14.46C89.0497 13.98 88.4564 13.3067 88.0164 12.44C87.5897 11.56 87.3764 10.5467 87.3764 9.4ZM95.7364 9.42C95.7364 8.56667 95.4964 7.89333 95.0164 7.4C94.5497 6.90667 93.9764 6.66 93.2964 6.66C92.6164 6.66 92.0364 6.90667 91.5564 7.4C91.0897 7.88 90.8564 8.54667 90.8564 9.4C90.8564 10.2533 91.0897 10.9333 91.5564 11.44C92.0364 11.9333 92.6164 12.18 93.2964 12.18C93.9764 12.18 94.5497 11.9333 95.0164 11.44C95.4964 10.9467 95.7364 10.2733 95.7364 9.42ZM115.871 3.72C117.257 3.72 118.357 4.14 119.171 4.98C119.997 5.82 120.411 6.98667 120.411 8.48V15H117.011V8.94C117.011 8.22 116.817 7.66667 116.431 7.28C116.057 6.88 115.537 6.68 114.871 6.68C114.204 6.68 113.677 6.88 113.291 7.28C112.917 7.66667 112.731 8.22 112.731 8.94V15H109.331V8.94C109.331 8.22 109.137 7.66667 108.751 7.28C108.377 6.88 107.857 6.68 107.191 6.68C106.524 6.68 105.997 6.88 105.611 7.28C105.237 7.66667 105.051 8.22 105.051 8.94V15H101.631V3.84H105.051V5.24C105.397 4.77333 105.851 4.40667 106.411 4.14C106.971 3.86 107.604 3.72 108.311 3.72C109.151 3.72 109.897 3.9 110.551 4.26C111.217 4.62 111.737 5.13333 112.111 5.8C112.497 5.18667 113.024 4.68667 113.691 4.3C114.357 3.91333 115.084 3.72 115.871 3.72Z" fill="#EF5F4C"/>
</svg>
